<svg aria-hidden="true" style="position: absolute; width: 0; height: 0; overflow: hidden;" version="1.1" xmlns="http://www.w3.org/2000/svg" xmlns:xlink="http://www.w3.org/1999/xlink">
<defs>
<symbol id="icon-battery" viewBox="0 0 32 32">
<path d="M13 10h-8c-0.553 0-1 0.447-1 1v10c0 0.553 0.447 1 1 1h14c0.553 0 1-0.447 1-1l-6-10c0-0.553-0.447-1-1-1zM31 10h-3v-3c0-0.553-0.447-1-1-1h-26c-0.553 0-1 0.447-1 1v18c0 0.553 0.447 1 1 1h26c0.553 0 1-0.447 1-1v-3h3c0.553 0 1-0.447 1-1v-10c0-0.553-0.447-1-1-1zM26 23c0 0.553-0.447 1-1 1h-22c-0.553 0-1-0.447-1-1v-14c0-0.553 0.447-1 1-1h22c0.553 0 1 0.447 1 1v14z"></path>
</symbol>
<symbol id="icon-beaker" viewBox="0 0 16 32">
<path d="M14 0h-12c-1.105 0-2 0.895-2 2v22c0 4.418 3.582 8 8 8s8-3.582 8-8v-22c0-1.105-0.895-2-2-2zM10 24c-1.105 0-2-0.895-2-2s0.895-2 2-2 2 0.895 2 2-0.895 2-2 2zM12 16h-2c0-1.104-0.896-2-2-2s-2 0.896-2 2h-2v-12h8v12z"></path>
</symbol>
<symbol id="icon-power" viewBox="0 0 32 32">
<path d="M12 0l-12 16h12l-8 16 28-20h-16l12-12z"></path>
</symbol>
<symbol id="icon-filter" viewBox="0 0 32 32">
<path d="M16 0c-8.837 0-16 2.239-16 5v3l12 12v10c0 1.105 1.791 2 4 2s4-0.895 4-2v-10l12-12v-3c0-2.761-7.163-5-16-5zM2.95 4.338c0.748-0.427 1.799-0.832 3.040-1.171 2.748-0.752 6.303-1.167 10.011-1.167s7.262 0.414 10.011 1.167c1.241 0.34 2.292 0.745 3.040 1.171 0.494 0.281 0.76 0.519 0.884 0.662-0.124 0.142-0.391 0.38-0.884 0.662-0.748 0.427-1.8 0.832-3.040 1.171-2.748 0.752-6.303 1.167-10.011 1.167s-7.262-0.414-10.011-1.167c-1.24-0.34-2.292-0.745-3.040-1.171-0.494-0.282-0.76-0.519-0.884-0.662 0.124-0.142 0.391-0.38 0.884-0.662z"></path>
</symbol>
<symbol id="icon-battery_charging_full" viewBox="0 0 24 24">
<path d="M11.016 20.016l3.984-7.5h-2.016v-5.531l-3.984 7.5h2.016v5.531zM15.656 3.984q0.563 0 0.961 0.398t0.398 0.961v15.328q0 0.563-0.398 0.938t-0.961 0.375h-7.313q-0.563 0-0.961-0.375t-0.398-0.938v-15.328q0-0.563 0.398-0.961t0.961-0.398h1.641v-1.969h4.031v1.969h1.641z"></path>
</symbol>
<symbol id="icon-power" viewBox="0 0 24 24">
<path d="M9 0l-9 12h9l-6 12 21-15h-12l9-9z"></path>
</symbol>
<symbol id="icon-filter" viewBox="0 0 24 24">
<path d="M12 0c-6.627 0-12 1.679-12 3.75v2.25l9 9v7.5c0 0.828 1.343 1.5 3 1.5s3-0.672 3-1.5v-7.5l9-9v-2.25c0-2.071-5.373-3.75-12-3.75zM2.212 3.254c0.561-0.32 1.35-0.624 2.28-0.879 2.061-0.564 4.728-0.875 7.508-0.875s5.447 0.311 7.508 0.875c0.93 0.255 1.719 0.559 2.28 0.879 0.37 0.211 0.57 0.39 0.663 0.496-0.093 0.107-0.293 0.285-0.663 0.496-0.561 0.32-1.35 0.624-2.28 0.879-2.061 0.564-4.728 0.875-7.508 0.875s-5.447-0.311-7.508-0.875c-0.93-0.255-1.719-0.559-2.28-0.879-0.37-0.211-0.57-0.39-0.663-0.496 0.093-0.107 0.293-0.285 0.663-0.496z"></path>
</symbol>
<symbol id="icon-navigation" viewBox="0 0 33 32">
<path d="M31.625 13.938c-0.508 0-1.731 0.563-2.603 1h-1.985c-0.12-2.543-1.141-4.845-2.755-6.6l1.312-1.313c0.932-0.305 2.302-0.799 2.679-1.176 0.586-0.586 0.586-1.536 0-2.122s-1.535-0.585-2.121 0c-0.359 0.359-0.826 1.624-1.133 2.548l-1.403 1.402c-1.763-1.605-4.070-2.612-6.616-2.718v-1.857c0.442-0.875 1.062-2.194 1.062-2.727 0-0.828-0.672-1.5-1.5-1.5s-1.5 0.672-1.5 1.5c0 0.508 0.563 1.731 1 2.603v1.985c-2.543 0.12-4.846 1.14-6.601 2.755l-1.312-1.313c-0.305-0.932-0.8-2.303-1.177-2.68-0.585-0.585-1.535-0.585-2.121 0s-0.586 1.536 0 2.122c0.359 0.36 1.623 0.826 2.547 1.133l1.403 1.403c-1.591 1.749-2.594 4.033-2.713 6.554h-1.985c-0.871-0.437-2.094-1-2.603-1-0.829 0-1.5 0.672-1.5 1.5s0.671 1.5 1.5 1.5c0.533 0 1.852-0.62 2.727-1.062h1.858c0.105 2.546 1.113 4.853 2.717 6.616l-1.402 1.403c-0.925 0.307-2.188 0.773-2.548 1.133-0.586 0.586-0.586 1.536 0 2.121 0.586 0.586 1.536 0.586 2.121 0 0.377-0.376 0.871-1.746 1.177-2.678l1.313-1.313c1.755 1.614 4.057 2.635 6.6 2.755v1.985c-0.437 0.871-1 2.095-1 2.603 0 0.828 0.672 1.5 1.5 1.5s1.5-0.672 1.5-1.5c0-0.533-0.62-1.852-1.062-2.727v-1.858c2.546-0.104 4.853-1.112 6.616-2.716l1.403 1.402c0.307 0.924 0.773 2.188 1.133 2.547 0.586 0.586 1.535 0.586 2.121 0s0.586-1.535 0-2.121c-0.377-0.377-1.747-0.871-2.679-1.177l-1.312-1.312c1.628-1.77 2.652-4.095 2.758-6.663h1.858c0.875 0.443 2.193 1.062 2.727 1.062 0.828 0 1.5-0.672 1.5-1.5s-0.673-1.499-1.501-1.499zM10.215 9.798l3.552 3.552c-0.342 0.457-0.569 0.997-0.655 1.587h-5.024c0.115-1.969 0.896-3.755 2.127-5.139zM8.084 15.875h5.022c0.078 0.615 0.308 1.178 0.662 1.65l-3.553 3.552c-1.243-1.398-2.028-3.208-2.131-5.202zM16.062 23.912c-1.992-0.116-3.795-0.914-5.186-2.17l3.55-3.55c0.467 0.362 1.023 0.606 1.636 0.694v5.026zM16.062 11.988c-0.613 0.088-1.169 0.333-1.636 0.695l-3.55-3.55c1.391-1.255 3.194-2.054 5.186-2.17v5.025zM25.037 14.938h-5.025c-0.088-0.612-0.332-1.169-0.694-1.636l3.55-3.55c1.255 1.39 2.053 3.194 2.169 5.186zM22.202 9.090l-3.552 3.553c-0.473-0.354-1.035-0.584-1.65-0.662v-5.022c1.994 0.103 3.804 0.888 5.202 2.131zM17 23.915v-5.021c0.615-0.078 1.178-0.308 1.65-0.661l3.552 3.552c-1.398 1.243-3.208 2.028-5.202 2.13zM22.867 21.123l-3.55-3.55c0.375-0.482 0.621-1.062 0.701-1.698h5.021c-0.101 2.017-0.903 3.844-2.172 5.248z"></path>
</symbol>
<symbol id="icon-bulb" viewBox="0 0 32 32">
<path d="M16 0c-6.076 0-11 4.924-11 11 0 4.031 3.688 8.303 5.031 12.055 2.003 5.595 1.781 8.945 5.969 8.945 4.25 0 3.965-3.334 5.969-8.922 1.347-3.76 5.031-8.078 5.031-12.078 0-6.076-4.926-11-11-11zM18.592 27.176l-4.958 0.619c-0.177-0.512-0.367-1.111-0.598-1.893-0.003-0.010-0.007-0.021-0.009-0.031l6.188-0.773c-0.088 0.295-0.182 0.605-0.264 0.883-0.131 0.449-0.248 0.839-0.359 1.195zM12.736 24.908c-0.182-0.602-0.387-1.236-0.615-1.908h7.766c-0.123 0.359-0.246 0.719-0.352 1.059l-6.799 0.849zM16 30c-1.013 0-1.479-0.117-1.997-1.25l4.238-0.531c-0.614 1.654-1.061 1.781-2.241 1.781zM20.672 21h-9.333c-0.498-1.080-1.096-2.16-1.686-3.217-1.305-2.335-2.653-4.75-2.653-6.783 0-4.963 4.037-9 9-9s9 4.037 9 9c0 2.018-1.35 4.446-2.656 6.795-0.584 1.053-1.178 2.131-1.672 3.205zM16 5c0.275 0 0.5 0.224 0.5 0.5s-0.224 0.5-0.5 0.5c-2.757 0-5 2.243-5 5 0 0.276-0.224 0.5-0.5 0.5s-0.5-0.224-0.5-0.5c0-3.309 2.691-6 6-6z"></path>
</symbol>
<symbol id="icon-location" viewBox="0 0 32 32">
<path d="M16.002 17.746c3.309 0 6-2.692 6-6s-2.691-6-6-6c-3.309 0-6 2.691-6 6s2.691 6 6 6zM16.002 6.746c2.758 0 5 2.242 5 5s-2.242 5-5 5c-2.758 0-5-2.242-5-5s2.242-5 5-5zM16 0c-6.618 0-12 5.316-12 12.001 0 7 6.001 14.161 10.376 19.194 0.016 0.020 0.718 0.805 1.586 0.805 0.002 0 0.073 0 0.077 0 0.867 0 1.57-0.785 1.586-0.805 4.377-5.033 10.377-12.193 10.377-19.194 0-6.685-5.383-12.001-12.002-12.001zM16.117 29.883c-0.021 0.020-0.082 0.064-0.135 0.098-0.010-0.027-0.084-0.086-0.129-0.133-3.665-4.217-9.853-11.334-9.853-17.847 0-5.514 4.487-10.001 10-10.001 5.516 0 10.002 4.487 10.002 10.002 0 6.512-6.188 13.629-9.885 17.881z"></path>
</symbol>
<symbol id="icon-dashboard" viewBox="0 0 28 28">
<path d="M6 18c0-1.109-0.891-2-2-2s-2 0.891-2 2 0.891 2 2 2 2-0.891 2-2zM9 11c0-1.109-0.891-2-2-2s-2 0.891-2 2 0.891 2 2 2 2-0.891 2-2zM15.687 18.516l1.578-5.969c0.125-0.531-0.187-1.078-0.719-1.219v0c-0.531-0.141-1.078 0.187-1.219 0.719l-1.578 5.969c-1.234 0.094-2.312 0.953-2.656 2.219-0.422 1.609 0.547 3.25 2.141 3.672 1.609 0.422 3.25-0.547 3.672-2.141 0.328-1.266-0.203-2.547-1.219-3.25zM26 18c0-1.109-0.891-2-2-2s-2 0.891-2 2 0.891 2 2 2 2-0.891 2-2zM16 8c0-1.109-0.891-2-2-2s-2 0.891-2 2 0.891 2 2 2 2-0.891 2-2zM23 11c0-1.109-0.891-2-2-2s-2 0.891-2 2 0.891 2 2 2 2-0.891 2-2zM28 18c0 2.688-0.766 5.281-2.203 7.547-0.187 0.281-0.5 0.453-0.844 0.453h-21.906c-0.344 0-0.656-0.172-0.844-0.453-1.437-2.25-2.203-4.859-2.203-7.547 0-7.719 6.281-14 14-14s14 6.281 14 14z"></path>
</symbol>
<symbol id="icon-snowflake-o" viewBox="0 0 26 28">
<path d="M24.469 17.453l-2.609 0.516 2.906 1.672c0.469 0.266 0.641 0.891 0.359 1.359s-0.891 0.641-1.359 0.359l-2.906-1.656 0.859 2.5c0.438 1.25-1.469 1.891-1.891 0.656l-1.594-4.688-4.234-2.438v4.891l3.25 3.719c0.875 0.984-0.641 2.312-1.5 1.313l-1.75-2v3.344c0 0.547-0.453 1-1 1s-1-0.453-1-1v-3.344l-1.75 2c-0.859 1-2.375-0.328-1.5-1.313l3.25-3.719v-4.891l-4.234 2.438-1.594 4.688c-0.422 1.234-2.328 0.594-1.891-0.656l0.859-2.5-2.906 1.656c-0.469 0.281-1.078 0.109-1.359-0.359s-0.109-1.094 0.359-1.359l2.906-1.672-2.609-0.516c-1.297-0.266-0.906-2.219 0.391-1.969l4.844 0.969 4.234-2.453-4.234-2.453-4.844 0.969c-0.063 0.016-0.141 0.016-0.203 0.016-1.188 0-1.359-1.75-0.187-1.984l2.609-0.516-2.906-1.672c-0.469-0.266-0.641-0.891-0.359-1.359 0.281-0.484 0.891-0.641 1.359-0.359l2.906 1.656-0.859-2.5c-0.438-1.25 1.469-1.891 1.891-0.656l1.594 4.688 4.234 2.438v-4.891l-3.25-3.719c-0.875-0.984 0.641-2.312 1.5-1.313l1.75 2v-3.344c0-0.547 0.453-1 1-1s1 0.453 1 1v3.344l1.75-2c0.859-1 2.375 0.328 1.5 1.313l-3.25 3.719v4.891l4.234-2.438 1.594-4.688c0.422-1.234 2.328-0.594 1.891 0.656l-0.859 2.5 2.906-1.656c0.469-0.281 1.078-0.109 1.359 0.359s0.109 1.094-0.359 1.359l-2.906 1.672 2.609 0.516c1.172 0.234 1 1.984-0.187 1.984-0.063 0-0.141 0-0.203-0.016l-4.844-0.969-4.234 2.453 4.234 2.453 4.844-0.969c1.297-0.25 1.687 1.703 0.391 1.969z"></path>
</symbol>
</defs>
</svg>
